<svg xmlns="http://www.w3.org/2000/svg" width="250" height="306" viewBox="0 0 250 306"><g><g><g><path fill="#3f3d56" d="M112.453 1.43l-.032-.78c1.565-.064 3.155-.097 4.726-.1l.001.78c-1.56.002-3.14.036-4.695.1zm14.078.255c-1.552-.12-3.129-.212-4.688-.27l.03-.78c1.57.06 3.157.151 4.719.273zm-23.436.503L103 1.414c1.557-.19 3.14-.35 4.703-.476l.063.777c-1.553.126-3.125.285-4.671.473zm32.76.597c-1.54-.244-3.105-.46-4.652-.643l.092-.775c1.558.184 3.133.402 4.682.648zm-42.027.907l-.157-.764c1.534-.313 3.099-.599 4.65-.85l.125.769c-1.54.25-3.094.534-4.618.845zm51.231.939a116.215 116.215 0 0 0-4.584-1.016l.155-.764c1.54.308 3.093.652 4.614 1.022zM84.714 5.937l-.219-.748c1.506-.436 3.042-.848 4.565-1.224l.188.757c-1.513.373-3.04.782-4.534 1.215zm69.37 1.275a116.588 116.588 0 0 0-4.487-1.382l.217-.75c1.507.432 3.027.9 4.516 1.392zm-78.272 1.7l-.279-.729c1.465-.556 2.962-1.09 4.45-1.587l.25.739a116.347 116.347 0 0 0-4.42 1.577zm87.079 1.612a116.746 116.746 0 0 0-4.37-1.745l.277-.73c1.47.554 2.95 1.145 4.398 1.757zm-95.688 2.06l-.337-.703c1.412-.67 2.857-1.322 4.297-1.936l.308.716c-1.43.61-2.866 1.258-4.268 1.924zm104.19 1.95a117.178 117.178 0 0 0-4.21-2.09l.335-.705c1.42.67 2.847 1.378 4.238 2.104zM58.914 16.94l-.393-.675a118.575 118.575 0 0 1 4.129-2.276l.365.69a116.984 116.984 0 0 0-4.101 2.26zm120.624 2.273c-1.32-.83-2.673-1.645-4.025-2.421l.392-.676a118.69 118.69 0 0 1 4.051 2.437zm-128.54 2.734l-.446-.64c1.29-.891 2.614-1.766 3.935-2.602l.42.659c-1.313.83-2.627 1.699-3.909 2.583zm136.278 2.58a117.857 117.857 0 0 0-3.815-2.734l.445-.642a118.98 118.98 0 0 1 3.84 2.753zm-143.77 3.047l-.495-.603c1.214-.99 2.464-1.969 3.714-2.907l.471.622a117.187 117.187 0 0 0-3.69 2.888zm151.052 2.866c-1.17-1.03-2.374-2.049-3.581-3.029l.495-.604c1.214.986 2.427 2.012 3.604 3.05zm-158.07 3.344l-.543-.562a118.909 118.909 0 0 1 3.47-3.196l.52.583a117.916 117.916 0 0 0-3.447 3.175zm164.85 3.128a118.403 118.403 0 0 0-3.325-3.303l.541-.563c1.131 1.08 2.257 2.198 3.347 3.325zm-171.35 3.622l-.587-.516c1.04-1.17 2.117-2.335 3.204-3.464l.565.54a118.796 118.796 0 0 0-3.182 3.44zM207.574 43.9c-.987-1.2-2.013-2.396-3.048-3.555l.585-.519a117.751 117.751 0 0 1 3.068 3.58zM24.047 47.785l-.625-.468c.943-1.251 1.924-2.499 2.916-3.71l.607.493a117.605 117.605 0 0 0-2.897 3.685zm189.18 3.575a117.603 117.603 0 0 0-2.75-3.786l.624-.47a117.69 117.69 0 0 1 2.77 3.811zM18.709 55.49l-.661-.417c.84-1.322 1.717-2.645 2.61-3.932l.643.443a118.53 118.53 0 0 0-2.591 3.906zm199.552 3.753a116.924 116.924 0 0 0-2.436-3.992l.66-.418c.84 1.315 1.664 2.667 2.452 4.018zM14.007 63.6l-.693-.362a117.24 117.24 0 0 1 2.284-4.131l.678.39a116.344 116.344 0 0 0-2.269 4.103zm208.629 3.897a116.26 116.26 0 0 0-2.104-4.171l.692-.364c.731 1.379 1.444 2.792 2.118 4.199zM9.977 72.069zm-.72-.305c.615-1.44 1.268-2.888 1.942-4.304l.707.334a116.44 116.44 0 0 0-1.929 4.275zm217.07 4.308a116.01 116.01 0 0 0-1.758-4.324l.72-.307c.614 1.428 1.21 2.892 1.77 4.352zM6.648 80.84zm-.742-.246a116.76 116.76 0 0 1 1.586-4.45l.732.276a115.36 115.36 0 0 0-1.575 4.42zm223.414 4.342c-.436-1.489-.909-2.99-1.405-4.463l.742-.248c.5 1.482.976 2.994 1.414 4.493zM4.05 89.83l-.76-.185c.372-1.518.78-3.049 1.215-4.551l.752.215a115.254 115.254 0 0 0-1.207 4.521zm227.526 4.186a115.782 115.782 0 0 0-1.037-4.561l.76-.188c.377 1.514.728 3.059 1.044 4.593zM2.193 98.997l-.773-.123c.248-1.544.531-3.103.842-4.634l.767.154c-.308 1.52-.59 3.07-.836 4.603zm230.9 4.249a115.302 115.302 0 0 0-.664-4.63l.773-.126a116.2 116.2 0 0 1 .668 4.661zm-232.01 5.038l-.78-.06c.123-1.562.28-3.138.465-4.687l.777.092a117.023 117.023 0 0 0-.461 4.655zm232.776 4.284c-.065-1.548-.162-3.12-.29-4.669l.78-.064c.129 1.56.226 3.142.291 4.7zM.722 117.631h-.783v-.13c0-1.522.03-3.062.089-4.577l.781.03a118.502 118.502 0 0 0-.087 4.548zm233.93 4.578l-.782-.03c.061-1.554.092-3.128.092-4.677v-.259h.783v.257c0 1.561-.031 3.145-.093 4.71zM.324 127.04a117.738 117.738 0 0 1-.286-4.7l.782-.031c.063 1.551.159 3.122.284 4.669zm233.577 4.555l-.777-.093c.186-1.543.343-3.11.466-4.654l.78.062a118.467 118.467 0 0 1-.469 4.685zM1.462 136.386c-.25-1.539-.474-3.107-.663-4.662l.777-.093c.188 1.544.41 3.101.659 4.63zm230.935 4.505l-.768-.156c.31-1.518.593-3.067.841-4.601l.773.124c-.25 1.545-.535 3.103-.846 4.633zM3.353 145.61a116.657 116.657 0 0 1-1.04-4.593l.768-.156c.311 1.52.658 3.055 1.032 4.563zm226.79 4.424l-.752-.217c.431-1.487.84-3.007 1.212-4.518l.76.185a116.063 116.063 0 0 1-1.22 4.55zm-224.155 4.62a115.594 115.594 0 0 1-1.41-4.495l.752-.217c.434 1.49.905 2.993 1.4 4.465zm221.16 4.325l-.732-.277a116.926 116.926 0 0 0 1.58-4.418l.742.247a116.408 116.408 0 0 1-1.59 4.447zM9.344 163.444a116.042 116.042 0 0 1-1.766-4.354l.732-.277a115.686 115.686 0 0 0 1.753 4.324zm214.085 4.216l-.707-.335a116.12 116.12 0 0 0 1.933-4.273l.72.306a117.624 117.624 0 0 1-1.946 4.302zM13.4 171.926c-.73-1.38-1.44-2.793-2.114-4.201l.706-.336c.67 1.4 1.376 2.804 2.1 4.174zm205.621 4.082l-.677-.39a117.172 117.172 0 0 0 2.273-4.102l.693.363c-.73 1.381-1.5 2.77-2.289 4.129zm-200.89 4.054a117.943 117.943 0 0 1-2.449-4.02l.677-.391c.78 1.341 1.599 2.685 2.432 3.993zm195.823 3.907l-.644-.443c.889-1.28 1.763-2.594 2.596-3.904l.661.418c-.839 1.318-1.718 2.64-2.613 3.93zm-190.45 3.827a117.84 117.84 0 0 1-2.765-3.814l.644-.444c.886 1.275 1.81 2.55 2.747 3.789zm184.76 3.7l-.607-.493c.99-1.204 1.966-2.443 2.902-3.682l.625.47a118.636 118.636 0 0 1-2.92 3.706zm-178.778 3.585a117.752 117.752 0 0 1-3.065-3.584l.606-.493a116.087 116.087 0 0 0 3.044 3.559zm172.503 3.461l-.564-.54a117.212 117.212 0 0 0 3.186-3.437l.586.517a119.123 119.123 0 0 1-3.208 3.46zm-165.953 3.326c-1.13-1.08-2.254-2.2-3.343-3.329l.564-.54a118.06 118.06 0 0 0 3.321 3.306zm159.136 3.195l-.52-.583a117.923 117.923 0 0 0 3.451-3.171l.542.562a118.797 118.797 0 0 1-3.473 3.192zm-152.06 3.051a118.364 118.364 0 0 1-3.601-3.053l.519-.583c1.167 1.03 2.37 2.05 3.578 3.033zm144.743 2.903zm-.47-.623c1.241-.93 2.483-1.9 3.693-2.884l.495.604a118.27 118.27 0 0 1-3.717 2.903zM50.672 213.78a117.536 117.536 0 0 1-3.837-2.757l.47-.623c1.244.932 2.526 1.854 3.812 2.739zm129.417 2.588l-.42-.66a117.28 117.28 0 0 0 3.911-2.578l.445.64c-1.291.89-2.616 1.764-3.937 2.598zm-121.422 2.455a117.185 117.185 0 0 1-4.049-2.442l.419-.658c1.314.829 2.667 1.645 4.022 2.425zm113.253 2.253l-.365-.69a117.77 117.77 0 0 0 4.104-2.257l.392.675c-1.354.78-2.744 1.544-4.131 2.272zM67.049 223.21a116.746 116.746 0 0 1-4.236-2.11l.364-.689c1.38.722 2.795 1.427 4.207 2.095zm96.353 1.9zm-.307-.716a116.96 116.96 0 0 0 4.27-1.919l.336.704a118.23 118.23 0 0 1-4.299 1.932zm-87.33 2.515a117.87 117.87 0 0 1-4.396-1.762l.306-.717c1.44.61 2.909 1.2 4.367 1.75zm78.812 1.54l-.248-.739c1.478-.492 2.966-1.02 4.423-1.572l.278.729a116.91 116.91 0 0 1-4.453 1.583zm-69.831 1.439c-1.51-.434-3.028-.904-4.515-1.397l.247-.74c1.477.49 2.986.957 4.485 1.388zm60.752 1.181zm-.187-.757c1.516-.371 3.042-.778 4.536-1.21l.218.75c-1.505.434-3.041.843-4.567 1.217zm-51.384 1.816c-1.54-.31-3.092-.656-4.613-1.027l.186-.758c1.51.369 3.052.712 4.582 1.02zm42.309.82l-.125-.77c1.535-.247 3.089-.53 4.619-.84l.156.764c-1.54.313-3.105.597-4.65.846zm-32.977.674c-1.56-.186-3.135-.406-4.681-.653l.124-.77c1.536.246 3.1.464 4.65.648zm23.593.454zm-.062-.777c1.553-.124 3.125-.281 4.672-.467l.094.774c-1.557.188-3.14.345-4.704.47zm-14.108 1.065c-1.565-.061-3.153-.154-4.719-.277l.062-.778c1.556.123 3.133.215 4.687.276zm4.725.09v-.78c1.556 0 3.136-.032 4.696-.094l.031.779c-1.57.063-3.16.095-4.727.095z"/></g><g><path fill="#3f3d56" d="M249.939 80.483V59.26a48.826 48.826 0 0 1-31.522-23.464 9.274 9.274 0 0 1-5.544 1.825H196.02a69.605 69.605 0 0 0 53.918 42.862z"/></g><g><path fill="#3f3d56" d="M249.94 58.044V37.656c0-6.272-5.084-11.358-11.357-11.356h-16.362v1.969a9.323 9.323 0 0 1-2.884 6.755 47.677 47.677 0 0 0 30.602 23.02z"/></g><g><path fill="#3f3d56" d="M171.235 37.666h-10.538c-5.164-.001-9.349-4.205-9.348-9.39V26.3h-15.352c-6.273 0-11.357 5.105-11.356 11.402v253.702a11.404 11.404 0 0 0 3.323 8.062 11.313 11.313 0 0 0 8.033 3.331h102.586c.468.001.935-.028 1.4-.086 5.682-.711 9.95-5.558 9.956-11.307V104.64c-37.311-4.341-68.4-31.069-78.704-66.975z"/></g><g><path fill="#3f3d56" d="M194.742 37.621h-22.276c10.253 35.1 40.809 61.216 77.473 65.52V81.69a70.821 70.821 0 0 1-55.197-44.07z"/></g><g opacity=".1"><path d="M161.788 298.89c.283-.28 6.99-7.072 12.674-23.187 5.215-14.785 10.478-40.567 5.93-79.434-8.615-73.632 35.565-120.557 36.013-121.022l-1.308-1.256c-.114.118-11.473 12.059-21.58 33.022a162.283 162.283 0 0 0-14.925 89.466c8.6 73.506-17.815 100.86-18.083 101.127z"/></g><g opacity=".1"><path d="M218.188 61.323c0-6.507 5.275-11.782 11.782-11.782s11.782 5.275 11.782 11.782-5.275 11.782-11.782 11.782-11.782-5.275-11.782-11.782z"/></g><g opacity=".1"><path d="M171.554 94.901c0-6.506 5.275-11.781 11.782-11.781s11.782 5.275 11.782 11.781c0 6.507-5.275 11.782-11.782 11.782s-11.782-5.275-11.782-11.782z"/></g><g opacity=".1"><path d="M189.545 129.229c0-6.507 5.275-11.782 11.782-11.782s11.782 5.275 11.782 11.782c0 6.506-5.275 11.781-11.782 11.781s-11.782-5.275-11.782-11.781z"/></g><g opacity=".1"><path d="M153.516 145.756c0-6.507 5.275-11.782 11.782-11.782s11.782 5.275 11.782 11.782-5.275 11.782-11.782 11.782-11.782-5.275-11.782-11.782z"/></g><g opacity=".1"><path d="M183.345 192.375c0-6.507 5.275-11.782 11.782-11.782s11.782 5.275 11.782 11.782-5.275 11.782-11.782 11.782-11.782-5.275-11.782-11.782z"/></g><g opacity=".1"><path d="M154.423 297.623s18.325-25.379-10.853-54.893"/></g><g opacity=".1"><path d="M168.972 300.55s12.524-28.69 52.778-18.589"/></g><g><path fill="#6c63ff" d="M137.96 218.038v-19.492h99.018v19.492z"/></g><g><path fill="#f2f2f2" d="M168.202 156.975c-8.206-12.199-6.272-28.563 4.553-38.511 10.825-9.949 27.293-10.498 38.757-1.294 11.465 9.205 14.486 25.403 7.111 38.122-7.375 12.718-22.934 18.143-36.617 12.766a9.623 9.623 0 1 1-13.804-11.083z"/></g><g><path fill="#6c63ff" d="M199 129.727c-.709-.409-3.393 2.87-6.355 7.643-2.962-4.772-5.646-8.052-6.354-7.643-.787.454 1.149 5.296 4.366 11.006-3.217 5.71-5.153 10.552-4.366 11.006.708.409 3.392-2.87 6.354-7.643 2.962 4.773 5.646 8.052 6.354 7.643.787-.454-1.149-5.296-4.366-11.006 3.217-5.71 5.153-10.552 4.366-11.006z"/></g><g><path fill="#a0616a" d="M55.95 180.42s-3.171 13.59-.453 13.59 8.155-6.342 8.155-6.342v-3.624z"/></g><g><path fill="#d0cde1" d="M62.518 168.367l-8.155 12.685h5.89z"/></g><g><path fill="#a0616a" d="M57.549 288.433v-9.06h10.873v9.06z"/></g><g><path fill="#a0616a" d="M92.568 278.014l2.265 10.42 11.326-2.72-2.718-9.06z"/></g><g><path fill="#2f2e41" d="M58.485 184.237s-3.624 1.812-4.077 9.967c-.453 8.154 1.36 29.446 1.36 29.446s-1.813 9.514 0 18.121c1.811 8.608-1.813 39.867.452 39.867s14.044 1.359 14.497 0c.453-1.36.906-21.746.906-21.746s3.624-10.42 0-16.762c0 0 8.154 6.796 8.154 8.608 0 1.812 8.608 29.9 12.685 30.353 4.077.453 15.403-.453 13.138-4.53-2.265-4.078-7.702-22.652-7.702-22.652s-4.077-13.59-11.325-19.48l3.624-28.993s7.701-19.48 3.171-22.198c-4.53-2.719-34.883 0-34.883 0z"/></g><g><path fill="#a0616a" d="M60.29 97.85c0-6.504 5.274-11.778 11.779-11.778s11.779 5.274 11.779 11.779-5.274 11.779-11.779 11.779-11.779-5.274-11.779-11.78z"/></g><g><path fill="#a0616a" d="M66.196 105.157s4.53 14.95 3.172 16.762c-1.36 1.812 14.496-9.967 14.496-9.967s-5.889-4.077-3.624-9.966z"/></g><g><path fill="#d0cde1" d="M85.205 110.73s-5.437 1.812-8.155 4.983c-2.718 3.171-9.06 3.624-9.06 3.624s-5.607 3.158-7.702 8.608c-2.232 5.808-.934 13.986 0 15.856 1.813 3.624 1.813 12.684 1.813 12.684l-2.266 20.84s-8.154 7.701-1.812 8.607c6.343.906 17.668-.453 24.464 0 6.795.453 14.497 1.36 12.231-3.171-2.265-4.53-4.983-7.702-2.265-16.762 2.127-7.09 2.035-33.6 1.894-44.794a9.012 9.012 0 0 0-4.377-7.616z"/></g><g><path fill="#a0616a" d="M67.543 180.2s-2.06 4.538-2.265 7.248c-1.585 21.066 9.967 0 9.967 0v-3.624z"/></g><g><path fill="#2f2e41" d="M99.335 284.81s-6.796-4.984-6.796-2.266-7.701 13.59-7.701 13.59-12.685 9.061-2.265 9.061 14.95-1.812 14.95-1.812l10.872-7.248s2.719-3.171 1.812-6.796c-.906-3.624-4.077-8.607-4.077-8.607s-3.624 4.983-6.795 4.077z"/></g><g><path fill="#2f2e41" d="M59.144 286.168s-.906-4.53-4.077-2.265c-3.172 2.265-11.779 9.06-11.779 9.06s-15.856 3.625-5.89 8.155c9.967 4.53 32.618-1.812 32.618-1.812s.906-14.497 0-14.044c-.906.453-10.42 1.812-10.872.906z"/></g><g opacity=".1"><path d="M78.646 125.018l1.359 27.634-13.17 26.673-2.233-.85 13.591-24.917z"/></g><g><path fill="#d0cde1" d="M89.32 116.628l3.398-.68s10.193 7.475 7.022 22.425c-3.171 14.95-17.215 37.601-17.215 37.601s-3.171 4.077-4.077 4.984c-.907.906-2.719 0-1.813 1.359.906 1.359-1.359 2.265-1.359 2.265s-9.966 0-9.06-3.624c.906-3.625 16.309-29.447 16.309-29.447l-2.265-24.01s-1.812-11.779 9.06-10.873z"/></g><g opacity=".1"><path d="M93.648 158.605v-3.171l-15.402 25.37z"/></g><g><path fill="#2f2e41" d="M63.713 86.912l-1.947-.78s4.072-4.482 9.736-4.092l-1.593-1.754s3.895-1.559 7.435 2.534c1.861 2.151 4.014 4.68 5.357 7.529h2.085l-.87 1.916 3.046 1.917-3.127-.345a10.604 10.604 0 0 1-.295 4.964l.083 1.514S80 94.708 80 93.928v1.95s-1.947-1.755-1.947-2.924l-1.062 1.364-.531-2.144-6.55 2.144 1.062-1.754-4.071.585 1.593-2.144s-4.603 2.534-4.78 4.677c-.177 2.144-2.478 4.873-2.478 4.873l-1.062-1.95s-1.593-8.77 3.54-11.693z"/></g></g></g></svg>