<svg xmlns="http://www.w3.org/2000/svg" width="16" height="14" viewBox="0 0 16 14"><g><g><g><path fill="#707070" d="M1.951.403a.503.503 0 0 0-.708.004.497.497 0 0 0 0 .702l12.533 12.488c.13.13.317.172.483.127a.497.497 0 0 0 .226-.832z"/></g><g><g><path fill="#707070" d="M7.811 10.246A3.082 3.082 0 0 1 4.885 5.85L3.056 4.02C2.108 4.75 1.16 5.693.143 6.802a.541.541 0 0 0-.003.73c2.221 2.454 4.18 4.566 7.52 4.566 1.018 0 1.956-.253 2.818-.657L8.99 9.95a3.11 3.11 0 0 1-1.177.295z"/></g><g><path fill="#707070" d="M15.584 7.174a.537.537 0 0 0 .017-.708c-1.79-2.174-4.272-4.564-7.548-4.564-.996 0-1.917.226-2.807.65L6.742 4.05c.36-.171.756-.277 1.174-.295a3.082 3.082 0 0 1 2.927 4.396l1.831 1.832c1.13-.866 2.099-1.914 2.91-2.808z"/></g><g><path fill="#707070" d="M5.655 7.205a2.2 2.2 0 0 0 2.017 2.016c.28.02.55-.01.8-.089L5.742 6.401a2.24 2.24 0 0 0-.086.804z"/></g><g><path fill="#707070" d="M10.104 7.01c0-.045-.004-.09-.004-.134-.191.086-.4.133-.623.133-.037 0-.072 0-.106-.003l.637.64c.061-.202.096-.417.096-.637z"/></g><g><path fill="#707070" d="M7.857 5.324c0-.205.037-.4.106-.579-.034 0-.069-.003-.106-.003-.22 0-.432.034-.634.096l.64.64c-.003-.051-.006-.103-.006-.154z"/></g></g></g></g></svg>