<svg xmlns="http://www.w3.org/2000/svg" width="16" height="20" viewBox="0 0 16 20"><g><g><path fill="#666" d="M10.961 6.924H4.423V4.616c0-.87.341-1.687.962-2.307a3.241 3.241 0 0 1 2.307-.962c.87 0 1.688.341 2.308.962.62.62.961 1.437.961 2.307zM8.365 16.23a.69.69 0 0 1-.64.693.674.674 0 0 1-.706-.673v-3.327a1.539 1.539 0 0 1-.86-1.524 1.547 1.547 0 0 1 1.423-1.394 1.54 1.54 0 0 1 .783 2.918zm3.942-9.307V4.679c0-2.534-2.019-4.64-4.552-4.678a4.63 4.63 0 0 0-4.678 4.615v2.308H1.923A1.929 1.929 0 0 0 0 8.847v9.23c0 1.058.865 1.924 1.923 1.924h11.538a1.929 1.929 0 0 0 1.923-1.923V8.847a1.929 1.929 0 0 0-1.923-1.923z"/></g></g></svg>