<svg xmlns="http://www.w3.org/2000/svg" width="458" height="351" viewBox="0 0 458 351"><defs><linearGradient id="93wna" x1="243.38" x2="243.38" y1="350.03" y2="-.11" gradientUnits="userSpaceOnUse"><stop offset="0" stop-color="gray" stop-opacity=".25"/><stop offset=".54" stop-color="gray" stop-opacity=".12"/><stop offset="1" stop-color="gray" stop-opacity=".1"/></linearGradient><linearGradient id="93wnb" x1="394.13" x2="394.13" y1="174.58" y2="120.41" gradientUnits="userSpaceOnUse"><stop offset="0" stop-color="gray" stop-opacity=".25"/><stop offset=".54" stop-color="gray" stop-opacity=".12"/><stop offset="1" stop-color="gray" stop-opacity=".1"/></linearGradient></defs><g><g><g opacity=".1"><path fill="#6c63ff" d="M39.71 161.003c-6.328 2.076-12.233 7.101-13.828 14.07-1.81 8.008 2.358 16.1 2.953 24.311 1.945 26.95-33.38 45.965-28.343 72.449 2.004 10.511 10.095 18.26 18.071 24.637 12.77 10.215 26.934 19.235 42.605 21.785 23.808 3.869 48.688-7.511 71.833-.317 18.666 5.8 32.95 22.806 51.489 29.08 14.114 4.78 29.313 2.895 43.988.963 7.893-1.038 16.186-2.241 22.568-7.39 11.883-9.583 12.6-28.504 20.547-42.066 12.263-20.934 39.15-25.023 61.697-20.955 22.547 4.067 44.427 14.095 67.27 13.248 4.88-.174 9.887-.898 14.139-3.495 5.176-3.161 8.677-8.724 11.77-14.232 19.268-34.317 30.004-74.236 30.767-114.422.13-6.944-.093-14.19-3.1-20.337-3.797-7.757-11.39-12.388-18.983-15.515-18.172-7.465-38.247-8.673-56.06-17.146-17.182-8.164-31.102-22.489-46.06-34.742-29.667-24.34-64.54-41.185-101.037-48.833-8.592-1.8-17.51-3.088-26.048-1.008-9.837 2.398-18.316 9.054-25.938 16.214-20.286 19.065-36.539 42.571-55.226 63.458a323.3 323.3 0 0 1-41.968 39.229c-6.93 5.41-14.27 11.833-21.977 15.833-7.049 3.656-13.676 2.737-21.13 5.181z"/></g><g><path fill="url(#93wna)" d="M108.048 186.199a40.512 40.512 0 0 0 5.567-8.015h.082a60.254 60.254 0 0 1-3.045 8.724c-2.428.46-3.893.7-3.893.7zm321.674-10.71a8682.94 8682.94 0 0 0-47.447-9.615c-29.888-5.969-37.687 16.625-37.687 16.625 0 11.508-38.972 59.244-38.972 59.244l-11.622-25.648c1.786.272 3.61.15 5.344-.354 6.655-1.958 9.944-9.353 11.01-16.106a52.21 52.21 0 0 0-4.183-29.951c-1.983-4.278-4.553-8.302-6.146-12.732-6.72-18.586 4.92-40.1-2.12-58.615-2.908-7.64-8.706-13.837-12.715-20.975-8.993-16.05-8.608-36.13-18.415-51.722-9.199-14.617-27.327-23.282-44.693-21.35-10.24 1.14-17.559 4.742-27.1.422-8.056-3.636-17.726-7.703-26.021-1.974-7.075 4.885-8.278 14.507-12.141 22.113-6.784 13.36-22.878 22.08-24.77 36.899-.468 3.653 0 7.441-1.084 10.968-3.092 9.968-16.557 12.913-22.073 21.81-5.4 8.706.056 21.872 10.103 24.382 4.283 1.072 8.89.422 13.169 1.557 4.013 1.054 7.906 4.75 7.212 8.61l-8.9 1.594-25.605 2.801-3.961.245v.19l-.214.025.21.169v1.383c-7.208 2.78-18.887 10.2-23.298 29.665a29.282 29.282 0 0 1-5.966 12.128c-6.565 7.973-17.46 23.543-16.852 38.489.857 21.312.857 29.837 29.456 23.868 7.225-1.506 15.083-4.594 22.796-8.365.45 8.884 1.62 17.595 4.06 24.134 7.799 20.885-8.663 94.624-8.663 94.624h158.982s-13.43-43.475-26.424-65.64c-9.203-15.7-5.803-25.196-3.036-29.402a39.184 39.184 0 0 0 5.306-11.651c.471-1.818.93-3.881 1.323-6.168 2.925 2.358 6.047 4.476 9.58 5.742 3.272 1.168 6.994 1.489 10.304.586a1476.574 1476.574 0 0 0 22.441 26.403c31.19 35.802 39.854 13.639 39.854 13.639s31.623-59.244 35.974-77.148c4.35-17.903 13.862-17.05 13.862-17.05 26.073 6.492 49.182-2.932 59.918-8.602a2.802 2.802 0 0 0 1.486-2.901 2.833 2.833 0 0 0-2.282-2.347z"/></g><g><path fill="#40243e" d="M171.564 6.09c-6.433 4.515-7.528 13.394-11.03 20.438-6.169 12.346-20.804 20.41-22.525 34.103-.426 3.376 0 6.878-.985 10.132-2.809 9.214-15.056 11.936-20.09 20.157-4.913 8.045.05 20.213 9.186 22.534 3.904.992 8.084.394 11.976 1.438 3.892 1.043 7.662 4.857 6.373 8.666-.957 2.836-4.333 4.452-4.947 7.382-.536 2.522 1.181 4.925 2.844 6.886 2.111 2.482 4.365 4.925 7.19 6.552 7.767 4.475 17.458 1.788 26.417 1.493a47.732 47.732 0 0 1 30.124 9.576c2.478 1.88 4.81 4.05 6.346 6.756 5.007 8.817.272 19.882 1.336 29.963 1.205 11.456 9.761 20.65 18.4 28.265 3.451 3.041 7.091 6.039 11.424 7.61 4.334 1.572 9.514 1.486 13.158-1.319 3.829-2.947 5.16-8.166 5.184-13 .024-4.833-.993-9.643-.748-14.47.118-2.363.98-5.172 3.285-5.636 1.154-.233 2.324.236 3.376.764 7.35 3.695 14.402 10.932 22.28 8.584 6.056-1.809 9.061-8.643 10.015-14.887a48.963 48.963 0 0 0-3.806-27.67c-1.804-3.94-4.14-7.67-5.59-11.767-6.09-17.211 4.487-37.1-1.91-54.202-2.643-7.059-7.918-12.787-11.562-19.385-8.194-14.836-7.828-33.394-16.75-47.804-8.363-13.512-24.854-21.517-40.643-19.733-9.312 1.052-15.966 4.385-24.644.394-7.328-3.352-16.12-7.13-23.684-1.82z"/></g><g><path fill="#ffbcc8" d="M251.435 147.158s25.605-7.879 35.848 37.818l26 58.302s35.454-44.12 35.454-54.757c0 0 7.09-20.878 34.272-15.363a8108.7 8108.7 0 0 1 43.148 8.883 2.6 2.6 0 0 1 .705 4.833c-9.762 5.24-30.778 13.95-54.49 7.95 0 0-8.666-.788-12.605 15.758-3.94 16.545-32.697 71.302-32.697 71.302s-7.879 20.485-36.242-12.606c-28.363-33.09-49.636-61.454-49.636-61.454z"/></g><g><path fill="#ffbcc8" d="M231.954 144.986l-3.396 11.184-3.356 11.062-6.642 21.875-31.515 5.91-10.27-6.552-12.578-8.025-10.845-7.484-15.943-11.03-13-27.182s3.585-.634 14.761-2.667l15.573-2.848c10.754-1.97 14.82-9.975 16.06-18.121 1.486-9.754-1.09-19.697-1.09-19.697H209.5s4.451 6.697 3.754 18.263a46.297 46.297 0 0 1-1.785 10.1c-3.498 12.11 4.4 16.152 9.758 17.464 1.449.367 2.931.588 4.424.657z"/></g><g opacity=".1"><path d="M215.02 107.452a37.448 37.448 0 0 1-42.45 1.441c1.485-9.753-1.091-19.696-1.091-19.696h39.787s4.464 6.669 3.755 18.255z"/></g><g><path fill="#ffbcc8" d="M155.065 69.817c0-20.668 16.755-37.424 37.424-37.424s37.424 16.756 37.424 37.424c0 20.669-16.755 37.424-37.424 37.424s-37.424-16.755-37.424-37.424z"/></g><g opacity=".1"><path d="M231.954 147.23l-3.396 11.183-3.356 11.062-6.642 21.875-31.515 5.909-10.27-6.551-12.578-8.025-10.845-7.485-15.943-11.03-13-27.181s3.585-.634 14.761-2.667c7.88 21.922 17.846 30.085 26.84 32.732 5.377 1.576 10.403 1.182 14.41.59a37.185 37.185 0 0 1 15.453.789c12.094 3.364 18.46-3.077 21.805-11.251 2.474-6.047 3.293-13.047 3.545-17.727a22.21 22.21 0 0 0 4.424.658z"/></g><g><path fill="#ff808e" d="M108.7 350.224s14.97-68.15 7.879-87.454c-2.029-5.515-3.093-12.732-3.57-20.2-1.181-18.622 1.206-38.89 1.206-38.89.339-.658.658-1.312.965-1.97a65.562 65.562 0 0 0 2.08-4.932c8.442-22.714-2.06-37.837-7.386-43.62a26.512 26.512 0 0 0-2.758-2.652l30.136-3.348c7.922 22.734 18.082 31.12 27.221 33.808 5.378 1.575 10.404 1.181 14.41.59a37.182 37.182 0 0 1 15.455.788c12.094 3.365 18.46-3.076 21.804-11.25 4.152-10.148 3.64-22.963 3.64-22.963l17.333 5.121s-1.528 9.494-2.911 21.97a445.546 445.546 0 0 0-.934 9.186c-1.182 13.229-1.883 27.856-.488 37.783a76.442 76.442 0 0 1-1.485 29.419 36.484 36.484 0 0 1-4.822 10.77c-2.517 3.884-5.61 12.665 2.757 27.182 11.818 20.484 24.03 60.666 24.03 60.666z"/></g><g><path fill="#ff808e" d="M242.157 141.134s14.311 22.455-4.467 41.757c-18.78 19.303-11.29-7.878-11.29-7.878l4.727-31.515z"/></g><g opacity=".1"><path d="M106.738 140.59a19.47 19.47 0 0 1 3.273-.734c5.121 2.443 7.958 9.223 9.498 16.302a36.66 36.66 0 0 1-5.385 28.071c8.442-22.734-2.06-37.857-7.386-43.64z"/></g><g opacity=".1"><path d="M233.28 174.639c-8.41.555-19.397-.43-19.397-.43 1.481 6.776-1.576 12.07-4.727 15.521a10.739 10.739 0 0 1-9.715 3.4c-18.176-3.151-45.814 13.394-45.814 13.394s-19.768 15.966-40.615 26.283c-1.182-18.621 1.205-38.889 1.205-38.889.34-.658.658-1.312.966-1.97 8.422-1.576 39.023-7.8 45.125-16.939.906-1.36 2.363-2.631 4.176-3.813 5.211-3.372 13.551-6.016 21.48-7.946a85.79 85.79 0 0 1 30.188-1.914 83.264 83.264 0 0 1 12.827 2.501 81.957 81.957 0 0 1 5.235 1.627c4.46 1.576 7.84 3.337 8.426 5.212.792 2.52-3.703 3.592-9.36 3.963z"/></g><g opacity=".1"><path d="M227.213 170.124a176.261 176.261 0 0 1-11.369-.58c1.482 6.776-1.575 12.07-4.727 15.522a10.738 10.738 0 0 1-9.714 3.4c-6.85-1.182-15.049.429-22.6 2.89l-12.595-8.024-10.845-7.484c3.152-1.69 5.59-3.546 6.906-5.515 3.498-5.248 14.97-9.152 25.657-11.76a85.122 85.122 0 0 1 42.644.489l.37.099c6.85 1.91 12.862 4.278 13.662 6.838 1.15 3.684-8.864 4.275-17.389 4.125z"/></g><g><path fill="#ffbcc8" d="M102.343 140.242s-20.607 2.096-26.614 28.808a27.673 27.673 0 0 1-5.476 11.346c-5.972 7.378-15.848 21.745-15.296 35.537.788 19.697.788 27.575 26.787 22.06 26-5.515 61.06-33.878 61.06-33.878s27.639-16.518 45.815-13.394a10.747 10.747 0 0 0 9.715-3.4c3.151-3.45 6.228-8.745 4.727-15.52 0 0 30.727 2.757 28.757-3.546-.788-2.56-6.811-4.928-13.662-6.835a85.18 85.18 0 0 0-43.013-.59c-10.708 2.61-22.16 6.515-25.657 11.758-7.091 10.636-47.273 17.333-47.273 17.333l1.182-1.327a36.806 36.806 0 0 0 8.446-32.051c-1.536-7.08-4.36-13.859-9.498-16.301z"/></g><g><path fill="#ff808e" d="M104.21 137.412s-1.182 47.666 16.545 40.575c17.727-7.091 3.939-40.575 3.939-40.575l-7.878-.788z"/></g><g opacity=".1"><path d="M162.086 70.46a174.228 174.228 0 0 0 34.402-7.395c2.876-.93 6-2.166 7.343-4.869.347-.697.607-1.524 1.288-1.906.58-.327 1.296-.225 1.946-.075 3.841.91 7.138 3.317 10.798 4.794 3.66 1.477 8.32 1.824 11.133-.95 3.32-3.277 2.221-8.91.035-13.027-8.119-15.316-27.138-22.308-44.44-21.04-2.43.177-4.9.504-7.09 1.576-4.633 2.225-7.17 7.177-9.68 11.664-4.88 8.702-30.687 33.989-5.735 31.227z"/></g><g><path fill="#40243e" d="M162.086 69.278a174.233 174.233 0 0 0 34.402-7.395c2.876-.93 6-2.166 7.343-4.869.347-.697.607-1.524 1.288-1.906.58-.327 1.296-.225 1.946-.075 3.841.91 7.138 3.317 10.798 4.794 3.66 1.477 8.32 1.824 11.133-.95 3.32-3.277 2.221-8.91.035-13.027-8.119-15.316-27.138-22.308-44.44-21.04-2.43.177-4.9.504-7.09 1.576-4.633 2.226-7.17 7.177-9.68 11.664-4.88 8.702-30.687 33.99-5.735 31.228z"/></g><g><path fill="url(#93wnb)" d="M434.118 120.411h-79.969a3.644 3.644 0 0 0-3.644 3.644v46.878a3.644 3.644 0 0 0 3.644 3.644h79.969a3.644 3.644 0 0 0 3.644-3.644v-46.878a3.644 3.644 0 0 0-3.644-3.644z"/></g><g><path fill="#6c63ff" d="M351.518 132.97c0-5.955 5.955-11.91 11.91-11.91h61.4c5.955 0 11.91 5.955 11.91 11.91v29.073c0 5.955-5.955 11.91-11.91 11.91h-61.4c-5.955 0-11.91-5.955-11.91-11.91z"/></g><g><path fill="#6c63ff" d="M351.518 139.407v-9.698h85.22v9.698z"/></g><g opacity=".3"><path d="M351.518 139.407v-9.698h85.22v9.698z"/></g><g><path fill="#d6d6e3" d="M359.597 152.385v-4.704h69.057v4.704z"/></g><g><path fill="#6c63ff" d="M352.34 165.13a6.76 6.76 0 1 1 13.52 0 6.76 6.76 0 0 1-13.52 0z"/></g><g opacity=".3"><path d="M352.34 165.13a6.76 6.76 0 1 1 13.52 0 6.76 6.76 0 0 1-13.52 0z"/></g><g opacity=".05"><path d="M106.089 190.303s-7.485 3.975-8.726 8.832c-1.241 4.857-2.699 5.744-2.699 5.744"/></g><g opacity=".05"><path d="M303.26 243.575s-3.545 12.212 0 13.788"/></g><g opacity=".05"><path d="M116.42 257.729s30.727 6.697 53.575-7.091h9.848s29.546 14.97 43.727 10.636"/></g><g><path fill="#8ed16f" d="M369.546 258.816l-26.601-11.61 5.958-13.651 26.602 11.61z"/></g><g><path fill="#8ed16f" d="M357.49 248.939c-3.093-1.35-5.052-3.699-4.377-5.246.675-1.547 3.73-1.707 6.823-.358 3.092 1.35 5.052 3.699 4.376 5.246-.675 1.548-3.73 1.708-6.822.358z"/></g><g opacity=".1"><path d="M357.49 248.939c-3.093-1.35-5.052-3.699-4.377-5.246.675-1.547 3.73-1.707 6.823-.358 3.092 1.35 5.052 3.699 4.376 5.246-.675 1.548-3.73 1.708-6.822.358z"/></g><g><path fill="#8ed16f" d="M414.378 206.45l-26.601-11.611 5.958-13.651 26.602 11.61z"/></g><g><path fill="#8ed16f" d="M402.753 196.746c-3.092-1.35-5.052-3.699-4.377-5.246.676-1.547 3.73-1.707 6.823-.357 3.093 1.35 5.052 3.698 4.377 5.245-.675 1.548-3.73 1.708-6.823.358z"/></g><g opacity=".1"><path d="M402.753 196.746c-3.092-1.35-5.052-3.699-4.377-5.246.676-1.547 3.73-1.707 6.823-.357 3.093 1.35 5.052 3.698 4.377 5.245-.675 1.548-3.73 1.708-6.823.358z"/></g><g><path fill="#8ed16f" d="M431.955 266.077l-5.583-28.483 14.616-2.865 5.583 28.483z"/></g><g><path fill="#8ed16f" d="M433.287 250.712c-.65-3.311.168-6.259 1.824-6.584 1.657-.324 3.526 2.097 4.176 5.408.649 3.312-.168 6.26-1.825 6.584-1.657.325-3.526-2.096-4.175-5.408z"/></g><g opacity=".1"><path d="M433.287 250.712c-.65-3.311.168-6.259 1.824-6.584 1.657-.324 3.526 2.097 4.176 5.408.649 3.312-.168 6.26-1.825 6.584-1.657.325-3.526-2.096-4.175-5.408z"/></g><g><path fill="#8ed16f" d="M409.045 332.154l-26.602-11.611 5.958-13.651 26.602 11.61z"/></g><g><path fill="#8ed16f" d="M397.427 322.501c-3.093-1.35-5.052-3.699-4.377-5.246.676-1.547 3.73-1.707 6.823-.357 3.092 1.35 5.052 3.698 4.377 5.245-.676 1.548-3.73 1.708-6.823.358z"/></g><g opacity=".1"><path d="M397.427 322.501c-3.093-1.35-5.052-3.699-4.377-5.246.676-1.547 3.73-1.707 6.823-.357 3.092 1.35 5.052 3.698 4.377 5.245-.676 1.548-3.73 1.708-6.823.358z"/></g><g><path fill="#8ed16f" d="M335.038 319.253l-26.601-11.611 5.958-13.651 26.602 11.61z"/></g><g><path fill="#8ed16f" d="M323.098 309.6c-3.092-1.35-5.052-3.699-4.377-5.246.676-1.547 3.73-1.707 6.823-.357 3.093 1.35 5.052 3.698 4.377 5.245-.675 1.548-3.73 1.708-6.823.358z"/></g><g opacity=".1"><path d="M323.098 309.6c-3.092-1.35-5.052-3.699-4.377-5.246.676-1.547 3.73-1.707 6.823-.357 3.093 1.35 5.052 3.698 4.377 5.245-.675 1.548-3.73 1.708-6.823.358z"/></g></g></g></svg>